# Blender v2.79 (sub 0) OBJ File: ''
# www.blender.org
mtllib holedbox.mtl
o Cube.001
v 1.000312 -1.004034 -0.997508
v 1.000312 -1.004034 1.002492
v -0.999689 -1.004034 1.002492
v -0.999688 -1.004034 -0.997508
v 1.000312 0.995966 -0.997507
v 1.000311 0.995966 1.002493
v -0.999689 0.995966 1.002492
v -0.999688 0.995966 -0.997508
vn -1.0000 -0.0000 -0.0000
vn 0.0000 0.0000 -1.0000
vn 1.0000 0.0000 0.0000
vn -0.0000 -0.0000 1.0000
usemtl Material
s off
f 1//1 2//1 6//1 5//1
f 2//2 3//2 7//2 6//2
f 3//3 4//3 8//3 7//3
f 5//4 8//4 4//4 1//4
o Cube
v 1.000000 -1.000000 -1.000000
v 1.000000 -1.000000 1.000000
v -1.000000 -1.000000 1.000000
v -1.000000 -1.000000 -1.000000
v 1.000000 1.000000 -0.999999
v 0.999999 1.000000 1.000001
v -1.000000 1.000000 1.000000
v -1.000000 1.000000 -1.000000
vn 1.0000 0.0000 0.0000
vn -0.0000 -0.0000 1.0000
vn -1.0000 -0.0000 -0.0000
vn 0.0000 0.0000 -1.0000
usemtl Material
s off
f 9//5 13//5 14//5 10//5
f 10//6 14//6 15//6 11//6
f 11//7 15//7 16//7 12//7
f 13//8 9//8 12//8 16//8
